<svg width="77" height="77" viewBox="0 0 77 77" fill="none" xmlns="http://www.w3.org/2000/svg">
<rect x="3.5" y="3.5" width="69.616" height="69.616" rx="16.5" fill="#E024FF" stroke="black" stroke-width="7"/>
<path d="M35.385 28.7822C35.385 36.3987 32.2007 40.2746 26.3826 40.2746C20.5644 40.2746 17.9548 36.3987 17.9548 28.7822C17.9548 21.1657 20.5644 17.2898 26.3826 17.2898C32.2007 17.2898 35.385 21.1657 35.385 28.7822Z" fill="#F3E5E5"/>
<path d="M33.6612 29.1653C33.6612 33.4813 31.8417 35.6777 28.517 35.6777C25.1924 35.6777 23.7012 33.4813 23.7012 29.1653C23.7012 24.8493 25.1924 22.653 28.517 22.653C31.8417 22.653 33.6612 24.8493 33.6612 29.1653Z" fill="#9400D9"/>
<circle cx="25.6164" cy="25.3344" r="3.06464" fill="#F3E5E5"/>
<path d="M40.5645 33.2349C40.5645 30.5933 41.6138 28.0599 43.4817 26.192C45.3496 24.3241 47.8829 23.2748 50.5245 23.2748C53.1661 23.2748 55.6995 24.3241 57.5674 26.192C59.4352 28.0599 60.4846 30.5933 60.4846 33.2348L55.5308 33.2349C55.5308 31.9071 55.0034 30.6337 54.0645 29.6949C53.1256 28.756 51.8523 28.2286 50.5245 28.2286C49.1968 28.2286 47.9234 28.756 46.9845 29.6949C46.0457 30.6337 45.5182 31.9071 45.5182 33.2349L40.5645 33.2349Z" fill="black"/>
<circle cx="29.6642" cy="31.6594" r="3.06464" fill="#CD62FF"/>
<path d="M56.5157 44.0963C55.3633 47.7051 53.1666 50.8911 50.2035 53.2514C47.2404 55.6118 43.6439 57.0405 39.8689 57.3568C36.0938 57.6731 32.3097 56.8629 28.9951 55.0286C25.6805 53.1944 22.9842 50.4184 21.2473 47.0517L26.3324 44.4282C27.5505 46.7891 29.4413 48.7358 31.7657 50.0221C34.0901 51.3085 36.7437 51.8766 39.3911 51.6548C42.0384 51.433 44.5605 50.4311 46.6384 48.7759C48.7163 47.1206 50.2567 44.8864 51.0649 42.3557L56.5157 44.0963Z" fill="black"/>
<rect width="8.38064" height="3.29194" transform="matrix(-0.906364 -0.422497 -0.422497 0.906364 58.2759 44.2539)" fill="black"/>
</svg>
